<svg xmlns="http://www.w3.org/2000/svg" width="80" height="80"><g fill="none" fill-rule="evenodd" stroke-linecap="round" stroke-linejoin="round"><path stroke="#EE6344" stroke-width="6.08" d="M44.2 29H57L41 45h16"/><path stroke="#484848" stroke-width="3" d="M29.954 12.79A30.793 30.793 0 0 0 26 27.935c0 17.084 13.85 30.933 30.934 30.933 2.4 0 4.736-.273 6.98-.79-5.301 9.424-15.397 15.79-26.98 15.79C19.849 73.867 6 60.017 6 42.934 6 28.25 16.231 15.956 29.954 12.79zM50 7h11L50 17h11m6 18h8l-8 8h8"/><path stroke="#484848" stroke-width="4" d="M22.052 53.524c-4.055-.033-6.23-2.05-6.527-6.054m22.63 17.937c-4.053.11-6.298-1.831-6.734-5.821"/></g></svg>