<svg xmlns="http://www.w3.org/2000/svg" width="80" height="80"><g fill="none"><path stroke="#484848" stroke-linecap="round" stroke-linejoin="round" stroke-width="3" d="M25.353 19c3.294 1.714 6.176 4.714 8.647 9-4.324-2.571-9.882-6.429-21-2.571m56 0c-11.118-3.858-16.676 0-21 2.571 2.47-4.286 5.353-7.286 8.647-9M41.56 34c12.464 0 19.693 4.874 21.687 14.623h0a5 5 0 0 1-6.686 5.671 41.6 41.6 0 0 0-15.001-2.77c-5.279 0-10.563.96-15.852 2.88h0a5 5 0 0 1-6.54-5.98C21.717 38.808 29.18 34 41.559 34z"/><path fill="#EE6344" d="M25 53.245c1.262-2.471 6.571-12.434 20.451-6.256 15.142-9.885 22.713 30.888 1.262 32.123C27.786 80.348 42 48.245 25 53.245z"/><path stroke="#484848" stroke-linecap="round" stroke-linejoin="round" stroke-width="3" d="M46 47c2.667 2 4.333 5.667 5 11 .667 5.333-.333 9.667-3 13"/></g></svg>