<svg xmlns="http://www.w3.org/2000/svg" width="80" height="80"><g fill="none" fill-rule="evenodd"><path stroke="#484848" stroke-linecap="round" stroke-linejoin="round" stroke-width="3" d="M2 75v-7h18v7m-4-14h-3V19h42v42H26m22-43V7h29m0 42H56"/><path fill="#EE6344" fill-rule="nonzero" d="M20 24h28a2 2 0 0 1 2 2v28a2 2 0 0 1-2 2H20a2 2 0 0 1-2-2V26a2 2 0 0 1 2-2zm14 13.879l-4.94-4.94a1.5 1.5 0 0 0-2.12 2.122L31.878 40l-4.94 4.94c-1.414 1.414.707 3.535 2.122 2.12L34 42.122l4.94 4.94a1.5 1.5 0 0 0 2.12-2.122L36.122 40l4.94-4.94c1.414-1.414-.707-3.535-2.122-2.12L34 37.878z"/><path stroke="#484848" stroke-linecap="round" stroke-linejoin="round" stroke-width="3" d="M15.942 61l5.757-5.757A2.485 2.485 0 0 1 25.942 57s0 0 0 0c-.566 7.56-4.9 11.227-13 11h-8c-2.196-4.074-2.53-9.074-1-15 2.294-8.89 1-16 9-16M62 27l6 6 9-9"/></g></svg>