<svg xmlns="http://www.w3.org/2000/svg" width="80" height="80"><g fill="none" fill-rule="evenodd"><path stroke="#484848" stroke-linecap="round" stroke-linejoin="round" stroke-width="3" d="M56.5 31c-3 2-8 3-15 3.5-5.556.397-10.21-.05-13.452 1.495C23.55 38.138 21.088 41.133 21 45c-.021.945.258 1.952.5 3 1.5 6.5 6 6.5 5 14.5 1.667 2.333 3.333 4.333 5 6h6.333"/><path fill="#EE6344" fill-rule="nonzero" d="M67.85 31.224c3.561 0 6.056-2.332 8.147-4.888 1.609-1.966 3.53-3.779 3.53-6.517 0-6.3-5.377-9.776-11.676-9.776-6.3 0-11.134 3.477-11.134 9.776 0 2.859 1.249 4.515 2.987 6.517 2.091 2.409 4.706 4.888 8.147 4.888z"/><path stroke="#484848" stroke-linecap="round" stroke-linejoin="round" stroke-width="3" d="M63.933 34c2.477 0 4.212-1.622 5.667-3.4 1.119-1.368 2.456-2.629 2.456-4.533 0-4.382-3.741-6.8-8.123-6.8-4.381 0-7.744 2.418-7.744 6.8 0 1.988.869 3.14 2.078 4.533 1.454 1.675 3.273 3.4 5.666 3.4z"/><path stroke="#484848" stroke-linecap="round" stroke-linejoin="round" stroke-width="3" d="M58.833 20.4L56 17c-1 2.667-.667 4.667 1 6m12.6-2.6L73 17c.733 2.333.167 4.167-1.7 5.5M32.5 62c0-1.5 6-8 6-11.75 0-2.5-1.167-4.417-3.5-5.75"/><path stroke="#484848" stroke-linecap="round" stroke-width="3" d="M23.5 39c0-5.5-10.5-6-12.5-14-1.333-5.333.333-9.5 5-12.5m34.5 39c-5.645.445-9.815.982-12.51 1.612m-11.873 4.111A63.692 63.692 0 0 0 20 60.5"/><path stroke="#484848" stroke-linecap="round" stroke-linejoin="round" stroke-width="3" d="M21 45c0 5.333-2 9.333-6 12 .333 3.333.833 7.167 1.5 11.5H23M52 42l-1.5 9.5 8 17H65"/><path stroke="#484848" stroke-linecap="round" stroke-width="3" d="M63.5 39c0 3.333-1.833 7.333-5.5 12l2 7.5"/><path stroke="#484848" stroke-linecap="round" stroke-linejoin="round" stroke-width="3" d="M64 52l.5 7.5"/></g></svg>