<svg xmlns="http://www.w3.org/2000/svg" width="80" height="80"><g fill="none" fill-rule="evenodd" stroke-linecap="round" stroke-linejoin="round"><path stroke="#484848" stroke-width="3" d="M25.925 18.334l6.6 6.6a4.667 4.667 0 0 1 0 6.599l-3.602 3.602a3.111 3.111 0 0 0-.257 4.109l2.163 2.784a49.923 49.923 0 0 0 8.8 8.8l2.785 2.163a3.11 3.11 0 0 0 4.108-.257l3.602-3.602a4.667 4.667 0 0 1 6.6 0l6.6 6.6a4.667 4.667 0 0 1 0 6.6s0 0 0 0l-6.389 6.388a4.667 4.667 0 0 1-3.472 1.363c-9.256-.343-18.466-5.096-27.63-14.26-9.163-9.163-13.916-18.372-14.26-27.629h0a4.667 4.667 0 0 1 1.365-3.472l6.388-6.388a4.667 4.667 0 0 1 6.6 0s0 0 0 0z"/><path stroke="#EE6344" stroke-width="6" d="M69 37.253C69 24.49 56.448 12 43.623 12"/><path stroke="#484848" stroke-width="3" d="M60 40.699C60 31.249 50.706 22 41.209 22"/></g></svg>