<svg xmlns="http://www.w3.org/2000/svg" width="80" height="80"><g fill="none" fill-rule="evenodd"><path fill="#EE6344" fill-rule="nonzero" d="M45.889 1.88h2.222C55.781 1.88 62 8 62 15.55s-30 7.55-30 0S38.218 1.88 45.889 1.88zM32 45v7a6 6 0 0 1-6 6h-4a6 6 0 0 1-6-6v-7"/><rect width="34" height="28" x="9" y="44" stroke="#484848" stroke-linecap="round" stroke-linejoin="round" stroke-width="3" rx="2"/><path stroke="#484848" stroke-linecap="round" stroke-linejoin="round" stroke-width="3" d="M32 44v8a2 2 0 0 1-2 2h-8a2 2 0 0 1-2-2v-8"/><path stroke="#484848" stroke-width="3" d="M43.5 5h2C52.404 5 58 10.596 58 17.5v8c0 3.695-1.594 6.062-4 8.5-2.448 2.48-5.74 5-9.5 5-4 0-7.028-2.237-9.5-5-2.137-2.388-4-5.043-4-8.5v-8C31 10.596 36.596 5 43.5 5z"/><path stroke="#484848" stroke-linecap="round" stroke-linejoin="round" stroke-width="3" d="M32 18h26c8.5 0 8-6.887 14.5-3.387M57 18c5.25 0 7 1.5 10 6.5"/><path stroke="#484848" stroke-width="3" d="M38.5 38v6"/><path stroke="#484848" stroke-linecap="round" stroke-linejoin="round" stroke-width="3" d="M51 37.5V45l17.478 5.41A5 5 0 0 1 72 55.186V72M61 61v11"/></g></svg>