<svg xmlns="http://www.w3.org/2000/svg" width="80" height="80"><g fill="none"><path fill="#484848" d="M73 8.5a1.5 1.5 0 0 1 0 3H21a8.5 8.5 0 0 0-8.5 8.5v51a1.5 1.5 0 0 1-3 0V20c0-6.351 5.149-11.5 11.5-11.5h52z"/><path fill="#484848" d="M11 35.5a1.5 1.5 0 0 1 0-3h56a1.5 1.5 0 0 1 0 3H11z"/><path fill="#EE6344" d="M21 16.5a5.5 5.5 0 1 1 0 11 5.5 5.5 0 0 1 0-11z"/><rect width="21" height="21" x="19" y="42" fill="#EE6344" rx="10.5"/><path fill="#484848" d="M28 43.5a7.5 7.5 0 1 0 0 15 7.5 7.5 0 0 0 0-15zm0-3c5.799 0 10.5 4.701 10.5 10.5S33.799 61.5 28 61.5 17.5 56.799 17.5 51 22.201 40.5 28 40.5zm7-21a2.5 2.5 0 1 0 0 5 2.5 2.5 0 0 0 0-5zm0-3a5.5 5.5 0 1 1 0 11 5.5 5.5 0 0 1 0-11zm14 3a2.5 2.5 0 1 0 0 5 2.5 2.5 0 0 0 0-5zm0-3a5.5 5.5 0 1 1 0 11 5.5 5.5 0 0 1 0-11z"/><path fill="#484848" d="M33.94 59.06a1.5 1.5 0 0 1 2.12-2.12l9 9a1.5 1.5 0 0 1-2.12 2.12l-9-9z"/></g></svg>