<svg xmlns="http://www.w3.org/2000/svg" width="80" height="80"><g fill="none" fill-rule="evenodd"><path fill="#EE6344" fill-rule="nonzero" d="M56.104 34.604c0-5.8-4.701-10.5-10.5-10.5-5.8 0-10.5 4.7-10.5 10.5M53.5 47H75a2 2 0 0 1 2 2v17a2 2 0 0 1-2 2H53.5C47.701 68 43 63.299 43 57.5S47.701 47 53.5 47z"/><path stroke="#484848" stroke-linecap="round" stroke-linejoin="round" stroke-width="3" d="M67 63v12H14V36h53v12"/><path stroke="#484848" stroke-linecap="round" stroke-linejoin="round" stroke-width="3" d="M54.5 48H73v15H54.5a7.5 7.5 0 0 1-7.5-7.5h0a7.5 7.5 0 0 1 7.5-7.5zM25.951 14.343L50.68 6.31a1 1 0 0 1 1.26.642l9.007 27.722a1 1 0 0 1-.95 1.31l-27.326.035a1 1 0 0 1-.952-.691L25.31 15.604a1 1 0 0 1 .642-1.26z"/><path stroke="#484848" stroke-linecap="round" stroke-linejoin="round" stroke-width="3" d="M43.728 9.025a7.849 7.849 0 0 0 9.87 4.546M28 21.9a6.872 6.872 0 0 0 4.596-8.9M11.478 30.142a6.872 6.872 0 0 0 .753-9.989"/><path stroke="#484848" stroke-linecap="round" stroke-linejoin="round" stroke-width="3" d="M17 36L6 24.8 25.092 5.706a1 1 0 0 1 1.414 0L32.9 12.1"/></g></svg>