<?xml version="1.0" standalone="no"?>
<!DOCTYPE svg PUBLIC "-//W3C//DTD SVG 20010904//EN"
 "http://www.w3.org/TR/2001/REC-SVG-20010904/DTD/svg10.dtd">
<svg version="1.0" xmlns="http://www.w3.org/2000/svg"
 width="497.000000pt" height="478.000000pt" viewBox="0 0 497.000000 478.000000"
 preserveAspectRatio="xMidYMid meet">

<g transform="translate(0.000000,478.000000) scale(0.100000,-0.100000)"
fill="#000000" stroke="none">
<path d="M3488 4206 c-26 -7 -64 -25 -85 -39 -68 -47 -351 -340 -368 -381 -37
-89 -36 -182 2 -261 8 -16 94 -110 191 -208 196 -197 228 -217 340 -217 98 0
146 31 320 203 84 84 170 177 190 207 36 53 37 58 37 145 0 73 -4 97 -22 130
-34 62 -359 380 -413 404 -61 27 -135 33 -192 17z m115 -186 c15 0 296 -280
313 -312 8 -15 14 -42 14 -59 0 -29 -19 -52 -158 -191 l-158 -158 -49 0 -49 0
-158 158 c-156 156 -158 159 -158 202 0 43 2 46 158 201 149 149 182 173 220
163 8 -2 19 -4 25 -4z"/>
<path d="M3504 3730 c-33 -34 -60 -64 -62 -68 -3 -9 114 -132 125 -132 5 0 37
29 72 64 l63 64 -64 66 c-35 36 -67 66 -70 66 -3 0 -32 -27 -64 -60z"/>
<path d="M2928 4109 c-9 -5 -183 -204 -385 -442 -202 -237 -513 -602 -690
-809 -178 -208 -323 -380 -323 -383 0 -3 76 -5 169 -5 l169 0 144 183 c579
733 1032 1316 1046 1344 15 31 15 36 -2 67 -26 50 -85 70 -128 45z"/>
<path d="M3885 3148 c-11 -7 -126 -95 -255 -196 -129 -102 -273 -215 -319
-251 -46 -36 -131 -103 -189 -148 l-105 -83 179 0 179 0 310 265 c192 163 317
277 328 298 14 27 15 39 6 66 -18 51 -87 76 -134 49z"/>
<path d="M1326 2199 c-19 -15 -26 -30 -26 -54 0 -33 12 -47 84 -98 29 -20 34
-58 11 -77 -14 -12 -42 -10 -77 5 -13 5 -18 3 -18 -8 0 -35 102 -46 128 -14
36 45 20 101 -39 137 -51 31 -64 53 -48 81 9 18 17 21 50 16 46 -6 62 9 24 23
-39 15 -59 12 -89 -11z"/>
<path d="M1534 2210 c-11 -4 -27 -22 -34 -40 -18 -43 -3 -72 55 -105 48 -29
66 -64 45 -90 -15 -18 -53 -19 -80 -3 -29 18 -39 -1 -11 -23 52 -42 131 -7
131 58 0 36 -5 42 -84 106 -24 20 -28 28 -22 52 7 26 9 27 52 21 33 -4 44 -2
44 8 0 23 -56 32 -96 16z"/>
<path d="M3814 2202 c-34 -22 -64 -84 -64 -133 0 -43 23 -92 56 -118 59 -47
151 -3 172 82 14 54 -1 127 -33 157 -33 31 -92 36 -131 12z m110 -45 c15 -21
21 -43 21 -82 0 -66 -27 -108 -72 -113 -81 -8 -115 145 -48 212 26 25 74 17
99 -17z"/>
<path d="M4100 2207 c-13 -7 -35 -28 -48 -47 -20 -30 -23 -44 -20 -97 5 -76
29 -114 82 -127 101 -26 180 104 132 219 -23 55 -91 80 -146 52z m75 -23 c42
-16 60 -126 30 -184 -9 -17 -27 -33 -41 -36 -62 -16 -112 51 -99 132 11 74 55
109 110 88z"/>
<path d="M260 2075 l0 -135 65 0 c50 0 65 3 65 14 0 11 -14 16 -47 18 l-48 3
-3 43 -3 42 39 0 c26 0 42 5 46 15 4 12 -3 15 -33 15 -41 0 -51 13 -51 68 0
20 5 22 50 22 38 0 50 4 50 15 0 12 -14 15 -65 15 l-65 0 0 -135z"/>
<path d="M460 2143 c23 -39 36 -71 31 -77 -4 -6 -22 -37 -40 -68 -28 -51 -30
-58 -14 -58 11 0 28 19 46 52 l29 51 30 -51 c20 -35 36 -52 49 -52 18 0 17 6
-16 63 -19 35 -35 70 -35 78 0 8 16 40 35 72 30 49 32 57 16 57 -11 0 -27 -17
-42 -45 -13 -25 -27 -45 -30 -45 -3 0 -17 20 -30 45 -17 32 -30 45 -46 45 -21
0 -20 -3 17 -67z"/>
<path d="M660 2075 c0 -126 1 -135 19 -135 16 0 19 7 18 47 -2 45 -1 46 35 57
57 17 78 39 78 85 0 54 -34 81 -101 81 l-49 0 0 -135z m102 88 c22 -20 23 -42
2 -71 -9 -14 -26 -22 -43 -22 -27 0 -27 1 -27 55 1 51 3 55 25 55 14 0 33 -7
43 -17z"/>
<path d="M880 2075 c0 -128 1 -135 20 -135 17 0 20 7 20 50 0 67 23 67 69 0
20 -30 41 -50 52 -50 26 0 24 4 -16 57 -39 51 -42 61 -20 69 8 3 19 21 25 39
20 61 -23 105 -102 105 l-48 0 0 -135z m104 89 c9 -8 16 -24 16 -35 0 -25 -35
-59 -60 -59 -18 0 -20 7 -20 55 0 52 2 55 24 55 14 0 32 -7 40 -16z"/>
<path d="M1114 2194 c3 -9 6 -69 6 -135 l0 -119 65 0 c51 0 65 3 65 15 0 11
-12 15 -50 15 l-50 0 0 45 0 45 40 0 c29 0 40 4 40 15 0 11 -11 15 -40 15
l-40 0 0 45 0 45 50 0 c38 0 50 4 50 15 0 12 -15 15 -71 15 -61 0 -70 -2 -65
-16z"/>
<path d="M1814 2194 c3 -9 6 -69 6 -135 l0 -119 53 0 c64 0 94 15 124 59 44
65 20 177 -43 201 -14 6 -52 10 -86 10 -51 0 -59 -2 -54 -16z m140 -39 c29
-32 38 -72 25 -119 -12 -44 -42 -66 -91 -66 l-38 0 0 105 0 105 40 0 c31 0 47
-6 64 -25z"/>
<path d="M2085 2075 l0 -136 64 3 c41 2 66 8 69 16 2 8 -11 12 -47 12 l-51 0
0 45 0 45 40 0 c29 0 40 4 40 15 0 11 -11 15 -40 15 l-40 0 0 45 0 45 50 0
c38 0 50 4 50 15 0 12 -14 15 -68 15 l-68 0 1 -135z"/>
<path d="M2284 2194 c3 -9 6 -69 6 -135 l0 -119 65 0 c51 0 65 3 65 15 0 11
-12 15 -50 15 l-50 0 0 120 c0 115 -1 120 -21 120 -15 0 -19 -4 -15 -16z"/>
<path d="M2477 2083 c2 -71 3 -131 3 -135 0 -5 7 -8 15 -8 13 0 15 22 15 135
0 123 -2 135 -18 135 -16 0 -17 -11 -15 -127z"/>
<path d="M2607 2088 c64 -181 66 -183 101 -96 71 180 82 218 64 218 -13 0 -26
-25 -52 -100 -19 -55 -38 -100 -41 -100 -3 0 -21 45 -40 100 -29 84 -37 100
-55 100 -20 0 -19 -5 23 -122z"/>
<path d="M2834 2188 c3 -13 6 -74 6 -136 l0 -113 62 3 c78 4 95 28 19 28 l-51
0 0 45 0 45 39 0 c25 0 41 5 45 15 4 12 -4 15 -39 15 l-45 0 0 45 0 45 50 0
c38 0 50 4 50 15 0 12 -15 15 -71 15 -69 0 -71 -1 -65 -22z"/>
<path d="M3040 2075 c0 -126 1 -135 19 -135 16 0 18 7 16 50 -2 45 -1 50 19
50 14 0 32 -16 54 -50 22 -34 39 -50 53 -50 21 0 21 1 4 28 -10 15 -26 36 -36
48 -24 26 -24 33 2 60 30 32 28 82 -5 111 -20 17 -39 23 -77 23 l-49 0 0 -135z
m104 89 c22 -21 20 -50 -4 -74 -43 -43 -73 -18 -68 54 2 32 5 36 29 36 15 0
35 -7 43 -16z"/>
<path d="M3271 2138 c33 -62 39 -83 39 -135 0 -56 2 -63 20 -63 19 0 20 4 14
54 -6 51 -4 60 35 130 46 84 47 86 27 86 -7 0 -26 -24 -42 -54 -16 -30 -32
-52 -36 -50 -5 3 -20 28 -33 55 -17 32 -32 49 -44 49 -16 0 -14 -9 20 -72z"/>
<path d="M3584 2179 c3 -17 6 -78 6 -135 0 -86 3 -104 15 -104 12 0 15 13 15
60 l0 60 40 0 c29 0 40 4 40 15 0 11 -11 15 -40 15 l-40 0 0 45 0 45 50 0 c38
0 50 4 50 15 0 12 -15 15 -71 15 l-71 0 6 -31z"/>
<path d="M4325 2075 l0 -135 55 0 c67 0 97 14 127 59 28 41 30 102 5 151 -22
45 -53 60 -127 60 l-60 0 0 -135z m134 88 c46 -37 45 -145 -2 -178 -12 -8 -38
-15 -59 -15 l-38 0 0 105 0 105 39 0 c22 0 48 -8 60 -17z"/>
<path d="M775 1595 c-130 -155 -132 -171 -26 -277 58 -59 72 -68 103 -68 20 0
43 3 52 6 13 5 317 381 339 420 7 12 -22 14 -190 14 l-198 0 -80 -95z"/>
<path d="M1700 1434 c-179 -140 -371 -291 -428 -335 -149 -116 -156 -154 -48
-257 97 -93 128 -94 234 -5 65 56 512 436 835 711 86 74 157 136 157 138 0 2
-96 4 -213 4 l-213 0 -324 -256z"/>
</g>
</svg>
